<?xml version="1.0" encoding="UTF-8"?>
<svg width="512" height="512" viewBox="0 0 512 512" xmlns="http://www.w3.org/2000/svg">
    <!-- 背景圆形 -->
    <circle cx="256" cy="256" r="256" fill="#1f2937"/>
    
    <!-- 羽毛球 -->
    <g transform="translate(128, 128) scale(0.5)">
        <!-- 羽毛球头部 -->
        <circle cx="256" cy="256" r="80" fill="#ef4444"/>
        
        <!-- 羽毛球羽毛 -->
        <g fill="#ffffff">
            <!-- 左侧羽毛 -->
            <path d="M256 256 L176 176 Q166 166 176 156 L256 76 Q266 66 276 76 L356 156 Q366 166 356 176 L276 256 Q266 266 256 256" transform="rotate(-45 256 256)"/>
            <!-- 右侧羽毛 -->
            <path d="M256 256 L176 176 Q166 166 176 156 L256 76 Q266 66 276 76 L356 156 Q366 166 356 176 L276 256 Q266 266 256 256" transform="rotate(45 256 256)"/>
            <!-- 上方羽毛 -->
            <path d="M256 256 L176 176 Q166 166 176 156 L256 76 Q266 66 276 76 L356 156 Q366 166 356 176 L276 256 Q266 266 256 256" transform="rotate(0 256 256)"/>
            <!-- 下方羽毛 -->
            <path d="M256 256 L176 176 Q166 166 176 156 L256 76 Q266 66 276 76 L356 156 Q366 166 356 176 L276 256 Q266 266 256 256" transform="rotate(180 256 256)"/>
        </g>
        
        <!-- 羽毛球杆 -->
        <rect x="246" y="336" width="20" height="120" fill="#3b82f6"/>
    </g>
</svg> 